<?xml version="1.0" standalone="no"?>
<!DOCTYPE svg PUBLIC "-//W3C//DTD SVG 20010904//EN"
 "http://www.w3.org/TR/2001/REC-SVG-20010904/DTD/svg10.dtd">
<svg version="1.0" xmlns="http://www.w3.org/2000/svg"
 width="900.000000pt" height="900.000000pt" viewBox="0 0 900.000000 900.000000"
 preserveAspectRatio="xMidYMid meet">
<metadata>
Created by potrace 1.14, written by Peter Selinger 2001-2017
</metadata>
<g transform="translate(0.000000,900.000000) scale(0.100000,-0.100000)"
fill="#000000" stroke="none">
<path d="M721 5498 c1 -3740 -1 -3588 49 -3833 53 -260 156 -516 295 -730 222
-343 538 -604 935 -770 88 -37 268 -92 365 -111 257 -51 272 -52 1350 -52 599
0 1032 3 1080 9 259 32 474 110 655 237 40 28 536 517 1295 1276 677 677 1244
1247 1260 1266 54 64 135 175 135 186 0 3 8 18 18 32 36 52 83 178 97 257 2
11 7 34 11 50 5 17 9 854 10 1860 3 1886 2 1934 -36 2110 -6 27 -13 66 -16 85
-8 47 -70 250 -101 330 -37 96 -134 286 -183 360 -160 240 -331 413 -596 598
-101 71 -316 171 -489 228 -148 48 -234 67 -420 94 -124 17 -264 18 -2923 19
l-2792 1 1 -3502z"/>
</g>
</svg>
